<?xml version="1.0" encoding="utf-8"?>
<!-- Generator: Adobe Illustrator 17.0.0, SVG Export Plug-In . SVG Version: 6.00 Build 0)  -->
<!DOCTYPE svg PUBLIC "-//W3C//DTD SVG 1.0//EN" "http://www.w3.org/TR/2001/REC-SVG-20010904/DTD/svg10.dtd">
<svg version="1.0" id="Layer_1" xmlns="http://www.w3.org/2000/svg" xmlns:xlink="http://www.w3.org/1999/xlink" x="0px" y="0px"
	 width="57.833px" height="54.5px" viewBox="1.667 106 57.833 54.5" enable-background="new 1.667 106 57.833 54.5"
	 xml:space="preserve">
<ellipse fill="#686868" cx="29.574" cy="131.41" rx="17.211" ry="21.484"/>
<path id="facebook-circle-icon" fill="#FFFFFF" d="M30.583,107.612c-14.16,0-25.638,11.478-25.638,25.638
	c0,14.16,11.478,25.638,25.638,25.638c14.159,0,25.638-11.478,25.638-25.638C56.222,119.09,44.743,107.612,30.583,107.612z
	 M38.172,122.695c0,0-2.565,0-3.583,0c-1.265,0-1.529,0.518-1.529,1.827c0,1.089,0,3.162,0,3.162h5.112l-0.492,5.551H33.06v16.581
	h-6.621v-16.511h-3.443v-5.621h3.443c0,0,0-0.808,0-4.426c0-4.154,2.221-6.323,7.148-6.323c0.807,0,4.585,0,4.585,0V122.695
	L38.172,122.695z"/>
</svg>
