<?xml version="1.0" encoding="utf-8"?>
<!-- Generator: Adobe Illustrator 17.0.0, SVG Export Plug-In . SVG Version: 6.00 Build 0)  -->
<!DOCTYPE svg PUBLIC "-//W3C//DTD SVG 1.0//EN" "http://www.w3.org/TR/2001/REC-SVG-20010904/DTD/svg10.dtd">
<svg version="1.0" id="Layer_1" xmlns="http://www.w3.org/2000/svg" xmlns:xlink="http://www.w3.org/1999/xlink" x="0px" y="0px"
	 width="57.833px" height="54.5px" viewBox="69.333 106 57.833 54.5" enable-background="new 69.333 106 57.833 54.5"
	 xml:space="preserve">
<ellipse fill="#686868" cx="99.14" cy="133.191" rx="19.585" ry="19.703"/>
<path id="instagram-circle-icon" fill="#FFFFFF" d="M110.434,122.057v3.151c0,0.505-0.41,0.915-0.915,0.915h-3.082
	c-0.506,0-0.915-0.41-0.915-0.915v-3.151c0-0.505,0.41-0.915,0.915-0.915h3.082C110.025,121.142,110.434,121.552,110.434,122.057z
	 M98.623,137.582c2.32,0,4.201-1.881,4.201-4.201c0-2.319-1.881-4.2-4.201-4.2s-4.201,1.881-4.201,4.2
	C94.423,135.702,96.303,137.582,98.623,137.582z M123.888,133.25c0,14.16-11.478,25.638-25.638,25.638
	c-14.159,0-25.638-11.478-25.638-25.638c0-14.16,11.479-25.638,25.638-25.638C112.41,107.612,123.888,119.09,123.888,133.25z
	 M113.041,129.109h-8.423c0.858,1.206,1.365,2.68,1.365,4.272c0,4.075-3.304,7.378-7.378,7.378c-4.074,0-7.378-3.304-7.378-7.378
	c0-1.593,0.506-3.066,1.365-4.272h-8.385v12.93c0,3.149,2.554,5.702,5.703,5.702h17.428c3.15,0,5.703-2.553,5.703-5.702V129.109z
	 M98.605,139.066c3.135,0,5.684-2.55,5.684-5.684c0-1.701-0.753-3.229-1.941-4.272c-0.417-0.365-0.887-0.67-1.399-0.903
	c-0.715-0.325-1.508-0.508-2.344-0.508c-0.835,0-1.629,0.183-2.344,0.508c-0.51,0.233-0.981,0.538-1.398,0.903
	c-1.189,1.043-1.941,2.571-1.941,4.272C92.921,136.516,95.471,139.066,98.605,139.066z M113.041,124.46
	c0-3.149-2.554-5.702-5.703-5.702H91.754v7.189h-1.169v-7.189H89.91c-0.045,0-0.088,0.002-0.132,0.003v7.186h-1.169v-7.038
	c-0.283,0.066-0.558,0.153-0.823,0.259v6.779h-1.169v-6.14c-1.457,1.033-2.409,2.731-2.409,4.654v3.745h9.142
	c1.338-1.358,3.198-2.202,5.256-2.202c2.058,0,3.918,0.844,5.256,2.202h9.179L113.041,124.46L113.041,124.46z"/>
</svg>
