<?xml version="1.0" encoding="utf-8"?>
<!-- Generator: Adobe Illustrator 17.0.0, SVG Export Plug-In . SVG Version: 6.00 Build 0)  -->
<!DOCTYPE svg PUBLIC "-//W3C//DTD SVG 1.0//EN" "http://www.w3.org/TR/2001/REC-SVG-20010904/DTD/svg10.dtd">
<svg version="1.0" id="Layer_1" xmlns="http://www.w3.org/2000/svg" xmlns:xlink="http://www.w3.org/1999/xlink" x="0px" y="0px"
	 width="57.833px" height="54.5px" viewBox="137.667 106 57.833 54.5" enable-background="new 137.667 106 57.833 54.5"
	 xml:space="preserve">
<ellipse fill="#686868" cx="168.156" cy="133.309" rx="19.852" ry="21.484"/>
<path id="youtube-4-icon" fill="#FFFFFF" d="M170.54,137.121c-0.584,0-1.086,0.372-1.455,0.823v-3.843h-1.653v11.936h1.653v-0.676
	c0.456,0.569,0.956,0.787,1.555,0.787c1.089,0,1.497-0.846,1.497-1.935v-4.885C172.137,138.135,171.739,137.121,170.54,137.121z
	 M170.452,143.974c0,0.28-0.047,0.482-0.143,0.606c-0.179,0.237-0.57,0.225-0.836,0.09c-0.125-0.062-0.255-0.166-0.388-0.309v-5.486
	c0.111-0.121,0.223-0.211,0.338-0.268c0.287-0.145,0.657-0.117,0.854,0.145c0.115,0.153,0.175,0.379,0.175,0.676V143.974
	L170.452,143.974z M164.938,126.66v-4.301c0-0.506,0.234-0.881,0.716-0.881c0.527,0,0.752,0.364,0.752,0.881v4.301
	c0,0.504-0.256,0.876-0.719,0.876C165.213,127.536,164.938,127.147,164.938,126.66z M164.198,137.233h1.637v8.803h-1.637v-0.972
	c-0.302,0.358-0.616,0.631-0.942,0.818c-0.882,0.506-2.093,0.495-2.093-1.292v-7.358h1.637v6.748c0,0.355,0.086,0.594,0.435,0.594
	c0.318,0,0.764-0.409,0.963-0.659V137.233z M161.185,135.834h-1.907v10.203h-1.843v-10.203h-1.908v-1.733h5.658V135.834
	L161.185,135.834z M175.858,137.01c-1.477,0-2.486,1.061-2.486,2.59v3.952c0,1.585,0.798,2.723,2.362,2.723
	c1.725,0,2.454-1.027,2.454-2.723v-0.662h-1.684v0.612c0,0.767-0.04,1.232-0.732,1.232c-0.659,0-0.715-0.57-0.715-1.232v-1.661
	h3.131V139.6C178.188,138.008,177.428,137.01,175.858,137.01z M176.503,140.474h-1.447v-0.89c0-0.606,0.125-1.033,0.732-1.033
	c0.587,0,0.715,0.436,0.715,1.033V140.474L176.503,140.474z M166.582,107.476c-14.234,0-25.773,11.54-25.773,25.775
	s11.54,25.774,25.773,25.774c14.236,0,25.776-11.539,25.776-25.774S180.818,107.476,166.582,107.476z M169.618,119.799h1.719v7.088
	c0,0.372,0.089,0.622,0.458,0.622c0.335,0,0.801-0.43,1.011-0.693V119.8h1.718v9.244h-1.718v-1.02
	c-0.745,0.884-1.467,1.154-1.988,1.154c-0.921,0-1.2-0.738-1.2-1.651V119.799L169.618,119.799z M165.688,119.723
	c1.394,0,2.471,1.037,2.471,2.484v4.531c0,1.553-1.088,2.477-2.471,2.477c-1.666,0-2.519-0.848-2.519-2.477v-4.531
	C163.169,120.724,164.173,119.723,165.688,119.723z M158.715,116.512l1.335,5.009l1.241-5.009h1.965l-2.252,7.449v5.083h-1.936
	v-5.083l-2.302-7.449H158.715z M180.779,145.046c0,2.177-1.764,3.941-3.941,3.941h-20.26c-2.177,0-3.941-1.764-3.941-3.941v-9.956
	c0-2.177,1.764-3.942,3.941-3.942h20.26c2.177,0,3.941,1.765,3.941,3.942V145.046z"/>
</svg>
